<svg xmlns="http://www.w3.org/2000/svg" width="58.204" height="58.204" viewBox="0 0 58.204 58.204"><path d="M11.709,30.125A16.992,16.992,0,0,1,13.414,21.6a17.384,17.384,0,0,1,11.163-9.3,16.79,16.79,0,0,1,9.049,0,17.468,17.468,0,0,1,9.654,6.716,17.917,17.917,0,0,1,3.214,9.063,16.992,16.992,0,0,1-1.705,8.526,17.384,17.384,0,0,1-11.163,9.3,17.5,17.5,0,0,1-16.83-4.5,19.783,19.783,0,0,1-1.873-2.22,16.088,16.088,0,0,1-1.509-2.583,17.394,17.394,0,0,1-1.705-6.48ZM26.146,6.139a21.537,21.537,0,0,0-7.709,2.3c-2.543,1.562-3.177,1.6-5.791,4.213S10,15.895,8.434,18.437a21.533,21.533,0,0,0-2.3,7.709H0v5.911H6.139c0,1.933,1.462,5.977,2.381,7.623.316.566.543,1.049.894,1.608a22.832,22.832,0,0,0,9.041,8.466,23.579,23.579,0,0,0,3.527,1.474,17.138,17.138,0,0,0,4.165.837V58.2h5.911V52.066c2.483,0,7.063-1.915,9.23-3.275a22.832,22.832,0,0,0,8.466-9.041c.3-.608.5-1.088.8-1.706a19.313,19.313,0,0,0,1.516-5.987H58.2V26.146H52.065c0-1.933-1.462-5.977-2.381-7.623-2.408-4.311-5.248-7.749-9.934-10.073a23.579,23.579,0,0,0-3.527-1.474,17.138,17.138,0,0,0-4.165-.837V0H26.146V6.139Z" transform="translate(0 0)" fill="#e1953a" fill-rule="evenodd"/><path d="M299.038,305.7a5.8,5.8,0,1,1,5.8,5.8A5.9,5.9,0,0,1,299.038,305.7Zm5.343-11.6c-.207.05-.941,0-1.3.061a11.809,11.809,0,0,0-9.71,9.388,12.385,12.385,0,0,0-.066,3.9,11.929,11.929,0,0,0,2.2,5.193,11.809,11.809,0,0,0,7.192,4.517,11.606,11.606,0,0,0,7.263-1.01,10.948,10.948,0,0,0,3.382-2.53,11.53,11.53,0,0,0,.841-14.88,11.985,11.985,0,0,0-4.919-3.834,9.643,9.643,0,0,0-3.615-.819l-1.259.009Z" transform="translate(-275.734 -276.603)" fill="#e1953a" fill-rule="evenodd"/></svg>