<svg xmlns="http://www.w3.org/2000/svg" width="31.418" height="44.684" viewBox="0 0 31.418 44.684">
  <g id="Слой_x0020_1" transform="translate(0 0.009)">
    <g id="_2551792266608" transform="translate(0 -0.009)">
      <path id="Path_17316" data-name="Path 17316" d="M3.491,15.7A12.3,12.3,0,0,1,12.985,3.812a11.755,11.755,0,0,1,5.448,0,12.206,12.206,0,0,1,7.8,18.047c-.874,1.475-6.961,9.425-8.354,11.282-.488.65-1.109,1.758-2.169,1.758s-1.681-1.108-2.169-1.758L11.857,30.9c-.972-1.3-5.939-7.8-6.671-9.038A11.558,11.558,0,0,1,4,19.115,13.593,13.593,0,0,1,3.491,15.7ZM0,15a14.931,14.931,0,0,0,.667,5.355,15.381,15.381,0,0,0,1.41,3.215c1.092,1.81,7.341,9.952,8.907,12.039.175.233.3.406.486.649a2.96,2.96,0,0,0,.847.9,4.882,4.882,0,0,0,1.1.734,5.244,5.244,0,0,0,6.456-1.535c1.56-1.918,3.973-5.294,5.5-7.329l1.982-2.643a32.652,32.652,0,0,0,1.954-2.759,15.639,15.639,0,0,0,2.11-7.228,15.351,15.351,0,0,0-1.482-7.42,16.1,16.1,0,0,0-5.15-6.108A15.267,15.267,0,0,0,16.32-.009,15.288,15.288,0,0,0,8.988,1.473a16.719,16.719,0,0,0-2.356,1.4A14.4,14.4,0,0,0,4.6,4.594,15.765,15.765,0,0,0,1.482,8.979,15.513,15.513,0,0,0,0,15Z" transform="translate(0 0.009)" fill="#ffead1" fill-rule="evenodd"/>
      <path id="Path_17317" data-name="Path 17317" d="M1686.821,1686.984a1.745,1.745,0,1,1,1.745,1.745A1.844,1.844,0,0,1,1686.821,1686.984Zm-3.491-.436a5.382,5.382,0,0,0,.492,2.737,4.349,4.349,0,0,0,.749,1.084,5.235,5.235,0,0,0,8.7-1.033,5.31,5.31,0,0,0-1.266-6.317,5.137,5.137,0,0,0-5.743-.779,5.138,5.138,0,0,0-1.092.741,3.542,3.542,0,0,0-.848.9,4.994,4.994,0,0,0-1,2.669Z" transform="translate(-1672.857 -1671.274)" fill="#ffead1" fill-rule="evenodd"/>
      <path id="Path_17318" data-name="Path 17318" d="M1122.22,6622.574v.523a1.791,1.791,0,0,0,1.484,1.484h14.487a1.791,1.791,0,0,0,1.484-1.484v-.523a1.791,1.791,0,0,0-1.484-1.483H1123.7A1.791,1.791,0,0,0,1122.22,6622.574Z" transform="translate(-1115.238 -6579.897)" fill="#ffead1" fill-rule="evenodd"/>
    </g>
  </g>
</svg>
