<svg xmlns="http://www.w3.org/2000/svg" width="25.909" height="37.224" viewBox="0 0 25.909 37.224">
  <g id="Слой_x0020_1" transform="translate(0.009 0.007)">
    <path id="Path_17319" data-name="Path 17319" d="M6.971,16.933a13.121,13.121,0,0,0,2.876,7.448l.945,1.018c1.6,1.231,2.905,1.665,5,.647a6.213,6.213,0,0,1,2.3-.825c1.069,0,2.549,2.191,3.14,3.112.638.995,2.094,3.152,2.094,4.3,0,.745-2.06,1.26-2.762,1.454-4.492,1.243-7.137.424-10.343-2.744-.228-.225-.306-.367-.508-.583A21.772,21.772,0,0,1,6.92,26.8,41.155,41.155,0,0,1,4.126,20.65C2.744,16.828,1.812,12.371,3.235,8.4A6.421,6.421,0,0,1,4.41,6.3,11.975,11.975,0,0,1,7.375,3.887a9.7,9.7,0,0,1,3.085-1.35.888.888,0,0,1,.379.2,1.174,1.174,0,0,1,.264.318A9.7,9.7,0,0,1,12,5.649c.291,1.164,1.239,4.578.382,5.937a1.739,1.739,0,0,1-.915.612c-1.463.592-2.827.987-3.758,2.349a4.183,4.183,0,0,0-.741,2.386ZM-.009,11.844A20.3,20.3,0,0,0,.6,17.775a32.506,32.506,0,0,0,1.163,3.853c.245.633.438,1.2.694,1.777l.76,1.785c.32.775,1.3,2.583,1.745,3.344a22.532,22.532,0,0,0,3.187,4.3,2.6,2.6,0,0,1,.27.312l1.009.955c1.937,1.547,4.239,3.115,6.99,3.115A16.251,16.251,0,0,0,22.717,36.1a6.322,6.322,0,0,0,2.089-1.109l.039-.034.69-.837c.908-1.7-.07-3.629-.847-5.019-.53-.947-1.4-2.364-2.044-3.264l-.987-1.194a2.761,2.761,0,0,0-.54-.551,6.855,6.855,0,0,0-1.208-.9,3.663,3.663,0,0,0-1.666-.521,6.555,6.555,0,0,0-3.234.924c-.964.4-1.713.886-2.9-.46C11.2,22.087,8.525,17.5,9.9,15.86a6.179,6.179,0,0,1,2.089-1.11c.38-.168.805-.318,1.167-.506,2.79-1.45,2.272-4.972,1.75-7.569l-.761-2.947c-.622-1.922-1.518-3.735-3.9-3.735-2.01,0-5.9,2.738-7.107,3.944A8.983,8.983,0,0,0,1.348,6.294l-.421.96a13.391,13.391,0,0,0-.936,4.59Z" fill="#ffead1" fill-rule="evenodd"/>
  </g>
</svg>
